<?xml version="1.0" standalone="no"?>
<!DOCTYPE svg PUBLIC "-//W3C//DTD SVG 20010904//EN"
 "http://www.w3.org/TR/2001/REC-SVG-20010904/DTD/svg10.dtd">
<svg version="1.0" xmlns="http://www.w3.org/2000/svg"
 width="398.000000pt" height="280.000000pt" viewBox="0 0 398.000000 280.000000"
 preserveAspectRatio="xMidYMid meet">

<g transform="translate(0.000000,280.000000) scale(0.100000,-0.100000)"
fill="#000000" stroke="none">
<path d="M1832 2690 c-128 -23 -225 -73 -321 -164 -190 -182 -240 -470 -122
-704 39 -77 100 -153 164 -203 56 -44 67 -59 45 -59 -23 0 -173 -76 -236 -119
-263 -180 -429 -484 -434 -795 -1 -72 3 -100 19 -136 94 -208 410 -361 828
-401 405 -38 858 90 1058 300 78 82 100 133 99 234 -5 361 -222 701 -555 868
-55 27 -106 49 -114 49 -23 0 -12 14 44 59 234 184 296 522 143 782 -76 129
-230 244 -372 278 -69 16 -185 21 -246 11z m213 -145 c254 -67 406 -326 339
-580 -32 -126 -131 -243 -254 -303 -74 -37 -76 -37 -200 -37 -124 0 -126 0
-200 37 -123 60 -222 177 -254 303 -43 164 3 337 123 455 122 120 286 166 446
125z m110 -1089 c98 -26 253 -109 334 -178 189 -160 311 -410 311 -638 0 -75
-36 -132 -123 -194 -132 -94 -306 -159 -512 -191 -148 -24 -427 -17 -568 14
-250 53 -439 150 -508 259 -34 54 -38 122 -15 244 67 346 327 613 676 694 76
18 326 12 405 -10z"/>
<path d="M2975 2350 c-251 -80 -367 -370 -245 -610 10 -20 39 -59 65 -88 l46
-51 -43 -22 c-42 -21 -168 -106 -168 -114 0 -2 22 -22 50 -45 l50 -42 60 40
c221 148 500 129 693 -48 105 -97 176 -246 180 -379 2 -56 0 -62 -33 -96 -45
-46 -172 -109 -275 -136 -46 -11 -131 -23 -197 -26 l-118 -6 0 -63 0 -64 99 0
c278 0 560 121 635 272 31 61 33 114 10 226 -40 198 -174 375 -357 473 l-58
31 39 42 c146 159 161 386 37 556 -104 141 -300 204 -470 150z m262 -146 c170
-82 212 -311 84 -457 -81 -92 -230 -120 -343 -64 -128 63 -193 205 -154 338
52 181 244 266 413 183z"/>
<path d="M690 2339 c-147 -29 -276 -153 -316 -304 -38 -142 11 -313 118 -407
l30 -26 -58 -31 c-214 -109 -364 -353 -364 -589 0 -107 79 -202 225 -272 110
-54 225 -80 373 -87 l122 -6 0 65 0 65 -107 6 c-185 10 -366 72 -443 152 -33
34 -35 40 -33 95 6 223 180 440 399 499 146 39 346 3 460 -84 18 -14 37 -25
43 -25 5 0 30 18 55 39 l46 40 -41 34 c-22 19 -67 49 -100 67 l-61 32 30 32
c49 50 98 140 112 206 63 297 -193 557 -490 499z m206 -150 c54 -25 108 -81
136 -138 31 -62 31 -167 2 -232 -80 -174 -301 -221 -442 -94 -70 63 -97 121
-96 210 1 101 42 176 127 237 70 50 190 58 273 17z"/>
</g>
</svg>
